<svg width="256" height="68" viewBox="0 0 256 68" fill="none" xmlns="http://www.w3.org/2000/svg">
<path d="M225.626 67.89C224.75 67.89 224.239 67.452 224.677 66.576L229.933 54.02L216.063 19.491C215.771 18.688 216.209 18.25 217.012 18.25H227.159C227.743 18.25 228.327 18.542 228.546 19.126L235.846 39.712L243.219 19.126C243.438 18.542 244.022 18.25 244.606 18.25H254.753C255.556 18.25 255.921 18.688 255.629 19.491L236.722 67.014C236.503 67.598 235.919 67.89 235.335 67.89H225.626Z" fill="#F3F5F7"/>
<path d="M190.294 54.896C180.439 54.896 173.65 46.7199 173.65 36.1349C173.65 25.6229 180.439 17.3739 190.294 17.3739C194.747 17.3739 197.886 18.688 200.222 21.243V2.99295C200.222 2.33595 200.733 1.82495 201.39 1.82495H211.391C212.048 1.82495 212.559 2.33595 212.559 2.99295V52.852C212.559 53.509 211.975 54.02 211.318 54.02H202.339C201.682 54.02 201.171 53.509 201.171 52.852L201.025 49.8589C198.616 52.9979 195.185 54.896 190.294 54.896ZM185.622 36.1349C185.622 40.8069 188.834 43.7999 193.068 43.7999C197.375 43.7999 200.368 40.734 200.368 36.062C200.368 31.463 197.375 28.4699 193.068 28.4699C188.834 28.4699 185.622 31.5359 185.622 36.1349Z" fill="#F3F5F7"/>
<path d="M147.515 54.896C137.66 54.896 130.871 46.72 130.871 36.135C130.871 25.623 137.66 17.374 147.515 17.374C152.552 17.374 155.983 19.199 158.246 22.338L158.392 19.418C158.392 18.761 158.903 18.25 159.56 18.25H168.612C169.269 18.25 169.78 18.761 169.78 19.418V52.852C169.78 53.509 169.196 54.02 168.539 54.02H159.56C158.903 54.02 158.392 53.509 158.392 52.852L158.246 49.859C155.837 52.998 152.406 54.896 147.515 54.896ZM142.843 36.135C142.843 40.807 146.055 43.8 150.289 43.8C154.596 43.8 157.589 40.734 157.589 36.062C157.589 31.463 154.596 28.47 150.289 28.47C146.055 28.47 142.843 31.536 142.843 36.135Z" fill="#F3F5F7"/>
<path d="M112.868 54.896C101.115 54.896 93.0117 47.012 93.0117 35.989C93.0117 25.477 100.385 17.374 111.554 17.374C122.504 17.374 128.855 25.331 128.855 34.529C128.855 38.398 127.906 40.807 124.329 40.807H104.984C106.298 44.092 109.437 45.333 113.89 45.333C115.934 45.333 118.27 45.26 121.263 43.654C121.847 43.362 122.212 43.508 122.577 44.092L125.935 48.764C126.227 49.202 126.3 49.786 125.57 50.443C122.577 53.509 117.978 54.896 112.868 54.896ZM104.765 32.412H117.978C117.248 28.616 114.62 27.375 111.627 27.375C108.488 27.375 105.714 28.762 104.765 32.412Z" fill="#F3F5F7"/>
<path d="M69.2676 54.02C68.6106 54.02 68.0996 53.509 68.0996 52.852V19.418C68.0996 18.761 68.6106 18.25 69.2676 18.25H78.9036C79.4876 18.25 79.9256 18.542 79.9986 19.491L80.3636 24.309C81.5316 20.294 83.7216 17.374 87.8096 17.374C89.6346 17.374 90.5836 17.885 91.0946 18.323C91.6786 18.761 91.8246 19.272 91.8246 19.929V28.032C91.8246 28.908 91.3136 29.2 90.2916 28.981C89.5616 28.762 88.8316 28.616 87.5906 28.616C83.2836 28.616 80.3636 30.879 80.3636 36.427V52.852C80.3636 53.509 79.8526 54.02 79.1956 54.02H69.2676Z" fill="#F3F5F7"/>
<path d="M17.7429 54.0199C16.9399 54.0199 16.5019 53.5089 16.7939 52.7789L33.5839 3.79593C33.8029 3.21192 34.3869 2.91992 34.9709 2.91992H45.9939C46.5779 2.91992 47.2349 3.21192 47.4539 3.79593L64.2439 52.7789C64.5359 53.5089 64.0979 54.0199 63.2949 54.0199H52.4179C51.8339 54.0199 51.3229 53.8009 51.1039 53.1439L49.2059 47.0119H31.7589L29.8609 53.1439C29.6419 53.8009 29.2039 54.0199 28.6199 54.0199H17.7429ZM35.2629 35.7699H45.7019L40.5189 19.0529L35.2629 35.7699Z" fill="#00CCFF"/>
<path d="M6.64301 13.213C2.774 13.213 0 10.293 0 6.57C0 2.92 2.774 0 6.64301 0C10.439 0 13.286 2.92 13.286 6.57C13.286 10.293 10.439 13.213 6.64301 13.213ZM0.438004 52.852V19.418C0.438004 18.761 0.949003 18.25 1.606 18.25H11.68C12.337 18.25 12.848 18.761 12.848 19.418V52.852C12.848 53.509 12.337 54.02 11.68 54.02H1.606C0.949003 54.02 0.438004 53.509 0.438004 52.852Z" fill="#F3F5F7"/>
</svg>
