<?xml version="1.0" encoding="UTF-8"?>
<svg id="Layer_1" data-name="Layer 1" xmlns="http://www.w3.org/2000/svg" viewBox="0 0 100 65">
  <defs>
    <style>
      .cls-1 {
        fill: none;
      }

      .cls-2 {
        fill: #231f20;
      }

      .cls-3 {
        fill: #0cf;
      }
    </style>
  </defs>
  <rect class="cls-1" width="100" height="65"/>
  <g>
    <path class="cls-2" d="M20.44,48.34l2.57-6.15-6.79-16.91c-.14-.39.07-.61.46-.61h4.97c.29,0,.57.14.68.43l3.58,10.08,3.61-10.08c.11-.29.39-.43.68-.43h4.97c.39,0,.57.21.43.61l-9.26,23.27c-.11.29-.39.43-.68.43h-4.75c-.43,0-.68-.21-.47-.64Z"/>
    <path class="cls-2" d="M38.5,18.99c0-1.77,1.35-3.19,3.23-3.19s3.23,1.42,3.23,3.19-1.38,3.23-3.23,3.23-3.23-1.42-3.23-3.23ZM38.72,25.24c0-.32.25-.57.57-.57h4.89c.32,0,.57.25.57.57v16.24c0,.32-.25.57-.57.57h-4.89c-.32,0-.57-.25-.57-.57v-16.24Z"/>
    <path class="cls-3" d="M57.91,44.78v-2.66c-2.18-.53-4.21-1.66-5.92-3.36-4.97-4.97-5.09-13.02-.03-18.08,5.09-5.09,13.14-4.97,18.11,0s5.09,13.02,0,18.11c-1.78,1.78-3.94,2.93-6.22,3.46v2.51c0,.35-.18.53-.58.53h-4.82c-.3,0-.55-.2-.55-.5ZM56.28,34.47c.5.5,1.05.9,1.65,1.2v-3.36c0-.35.18-.53.53-.53h4.87c.25,0,.53.18.53.53v3.36c.63-.33,1.23-.78,1.78-1.33,2.73-2.73,2.78-6.75.15-9.38s-6.67-2.61-9.41.13c-2.71,2.71-2.73,6.75-.1,9.38Z"/>
    <path class="cls-2" d="M77.22,18.99c0-1.77,1.35-3.19,3.23-3.19s3.23,1.42,3.23,3.19-1.38,3.23-3.23,3.23-3.23-1.42-3.23-3.23ZM77.44,25.24c0-.32.25-.57.57-.57h4.89c.32,0,.57.25.57.57v16.24c0,.32-.25.57-.57.57h-4.89c-.32,0-.57-.25-.57-.57v-16.24Z"/>
  </g>
</svg>